<svg width="128" height="45" viewBox="0 0 128 45" fill="none" xmlns="http://www.w3.org/2000/svg">
<g clip-path="url(#clip0_31_141)">
<path d="M128 10.6547H121.341L117.488 26.9105L116.947 29.1413C116.576 29.2427 116.204 29.3438 115.832 29.4119C115.156 29.5468 114.446 29.6144 113.703 29.6144C112.858 29.6144 112.182 29.4795 111.675 29.2427C111.202 29.0062 110.83 28.6686 110.627 28.195C110.424 27.7555 110.356 27.2149 110.39 26.6067C110.424 25.9985 110.559 25.3222 110.728 24.647L112.756 16.1973L114.074 10.5874H107.28L104.205 23.5647C103.833 25.119 103.63 26.6065 103.563 28.0261C103.495 29.4452 103.731 30.6621 104.205 31.7774C104.678 32.8588 105.523 33.7036 106.672 34.3455C107.821 34.9878 109.478 35.2913 111.574 35.2913C113.027 35.2913 114.311 35.157 115.393 34.9199C115.427 34.9199 115.494 34.8864 115.528 34.8864C115.224 36.2379 114.616 37.3192 113.669 38.1646C112.689 39.0096 111.269 39.4489 109.376 39.4489C108.565 39.4489 107.821 39.4151 107.145 39.3142L105.827 44.823C106.706 44.9244 107.686 44.9919 108.768 44.9919C110.796 44.9919 112.553 44.7554 114.074 44.3157C115.595 43.8424 116.88 43.1669 117.995 42.2203C119.077 41.2739 119.989 40.0911 120.733 38.7058C121.476 37.2864 122.051 35.6297 122.49 33.6698L127.087 14.3384L128 10.6547ZM100.115 24.5446C99.7094 26.2345 99.5743 27.958 99.7432 29.6479C99.9122 31.3714 100.588 33.9736 101.231 35.2916H94.8086C94.0314 33.9741 94.0654 33.3319 93.8965 32.9264C93.0511 33.6024 92.139 34.1768 91.125 34.6163C90.111 35.0559 88.9953 35.2924 87.711 35.2924C86.2236 35.2924 84.9395 35.0218 83.8917 34.515C82.8439 34.0084 81.9651 33.2986 81.289 32.4196C80.6126 31.5406 80.14 30.5267 79.8351 29.3438C79.531 28.161 79.3959 26.9105 79.3959 25.559C79.3959 23.4969 79.7678 21.571 80.478 19.7461C81.2211 17.921 82.2351 16.3322 83.52 14.9807C84.8044 13.6289 87.9478 10.6212 93.0852 10.6212H103.394L100.115 24.5446ZM95.4171 16.2646C92.3077 16.2646 91.7327 16.2646 90.4489 16.9071C89.5363 17.3802 88.7923 18.09 88.1503 18.9009C87.5082 19.7118 86.9673 20.6582 86.5956 21.7399C86.2239 22.8214 86.0209 23.9364 86.0209 25.0857C86.0209 26.5051 86.2579 27.6539 86.7308 28.4989C87.2036 29.3438 88.0827 29.7493 89.367 29.7493C90.0434 29.7493 90.6849 29.6144 91.2264 29.3438C91.7668 29.0733 92.375 28.6345 92.9838 27.9923C93.0517 27.2489 93.1528 26.4713 93.2879 25.6609C93.4229 24.8492 93.5921 24.0721 93.7275 23.396L95.4171 16.2646ZM77.5708 20.4216C77.5708 22.6184 77.1989 24.6122 76.489 26.4373C75.7793 28.2621 74.7653 29.8169 73.4807 31.1351C72.1961 32.4534 70.6755 33.467 68.884 34.2109C67.0927 34.9537 65.1661 35.3256 63.0705 35.3256C62.0564 35.3256 61.0424 35.2243 59.9944 35.0553L57.9669 43.2001H51.3078L59.0479 10.688H67.9373C69.6279 10.688 71.0807 10.9586 72.2637 11.4649C73.4805 11.9717 74.4607 12.6818 75.2719 13.5608C76.0494 14.4396 76.6236 15.487 76.9953 16.6698C77.4019 17.8192 77.5708 19.0698 77.5708 20.4216ZM61.2452 29.6479C61.7518 29.7828 62.3944 29.8169 63.1381 29.8169C64.321 29.8169 65.3691 29.6139 66.3488 29.1744C67.295 28.7351 68.1403 28.1267 68.8161 27.3498C69.4925 26.5724 69.9991 25.6261 70.4049 24.5446C70.7766 23.4626 70.9796 22.2462 70.9796 20.9285C70.9796 19.6437 70.709 18.5287 70.1345 17.6497C69.5598 16.7377 68.5801 16.2644 67.1606 16.2644H64.5238L61.2452 29.6479ZM47.2522 29.6479C46.4069 29.6479 45.7316 29.5128 45.2242 29.2762C44.7509 29.0397 44.3789 28.7018 44.1764 28.2283C43.9734 27.789 43.9058 27.2484 43.9398 26.64C43.9734 26.0315 44.1086 25.3555 44.2775 24.6797L46.3053 16.2309H53.8765L55.2625 10.6207H47.6572L49.4147 3.52335L42.3165 4.63811L37.8212 23.6318C37.4492 25.1861 37.2465 26.6738 37.1789 28.0926C37.111 29.512 37.3478 30.7294 37.8212 31.8442C38.2943 32.9257 39.1393 33.7704 40.2885 34.4126C41.4377 35.0548 43.094 35.3587 45.1896 35.3587C46.6432 35.3587 47.9273 35.2238 49.0092 34.987C49.1105 34.9527 49.2795 34.9192 49.3806 34.8856L50.7666 29.1063C50.2933 29.2752 49.8202 29.3771 49.3806 29.4439C48.7055 29.5801 47.9954 29.6479 47.2522 29.6479ZM30.3186 10.6547L24.4372 35.3254H31.0958L36.9431 10.6547H30.3186ZM37.653 7.81549L38.667 3.52335H32.0084L30.9944 7.81549H37.653ZM15.5817 10.688C17.0012 10.688 18.2518 10.9586 19.2996 11.4649C20.3474 11.9717 21.1924 12.6477 21.9021 13.5268C22.5782 14.4058 23.0851 15.4197 23.423 16.5687C23.7609 17.7173 23.9299 18.9682 23.9299 20.32C23.9299 22.3816 23.5581 24.3081 22.7807 26.1667C22.0032 27.9918 20.9892 29.6139 19.6713 30.9654C18.3532 32.3172 16.7982 33.3992 15.007 34.1763C13.2155 34.9535 11.2888 35.3589 9.19347 35.3589C8.92288 35.3589 8.44979 35.3589 7.77395 35.3254C7.09786 35.3254 6.32064 35.2576 5.47559 35.1224C4.59674 34.9875 3.6841 34.8183 2.73766 34.582C1.79321 34.3524 0.875585 34.0239 0 33.6019L7.7399 1.09007L14.6691 0.0080719L11.9311 11.5322C12.5394 11.2622 13.0803 11.0592 13.6888 10.9243C14.2633 10.7559 14.9056 10.688 15.5817 10.688ZM9.76794 29.8169C10.8157 29.8169 11.796 29.5801 12.7086 29.0397C13.6334 28.5272 14.4487 27.8382 15.1084 27.0119C15.7844 26.1667 16.3251 25.1866 16.6971 24.1386C17.0688 23.0571 17.2716 21.9424 17.2716 20.7933C17.2716 19.3737 17.035 18.2589 16.5617 17.4475C16.0886 16.6363 15.1084 16.2646 13.824 16.2646C13.4182 16.2646 12.9789 16.2987 12.3028 16.4676C11.6268 16.6025 11.0523 16.9409 10.5116 17.4137L7.60473 29.6817C8.48358 29.8169 8.75392 29.8504 8.99072 29.8504C9.15968 29.8169 9.43002 29.8169 9.76794 29.8169Z" fill="#002855"/>
</g>
<defs>
<clipPath id="clip0_31_141">
<rect width="128" height="45" fill="white"/>
</clipPath>
</defs>
</svg>
