<svg width="218" height="39" viewBox="0 0 218 39" fill="none" xmlns="http://www.w3.org/2000/svg">
<path d="M34.3105 17.3754C28.1348 17.3754 23.3093 22.0068 23.3093 28.2068C23.3093 34.4068 28.0129 38.9985 34.3105 38.9985C40.6081 38.9985 45.3934 34.3275 45.3934 28.1671C45.3934 22.0464 40.6899 17.3754 34.3105 17.3754ZM34.3521 34.5303C30.8353 34.5303 28.2582 31.832 28.2582 28.2083C28.2582 24.5435 30.7936 21.8467 34.3105 21.8467C37.869 21.8467 40.4445 24.5846 40.4445 28.2083C40.4445 31.832 37.869 34.5303 34.3521 34.5303ZM46.7421 22.0876H49.8099V38.5975H54.7171V17.7779H46.7421V22.0876ZM10.9595 21.8452C13.5365 21.8452 15.5812 23.4154 16.3574 25.7509H21.5517C20.6104 20.7582 16.4392 17.3754 11.0011 17.3754C4.82544 17.3754 0 22.0068 0 28.2083C0 34.4098 4.70353 39 11.0011 39C16.3173 39 20.5702 35.6172 21.5116 30.5834H16.3574C15.6213 32.9189 13.5767 34.5303 10.9996 34.5303C7.44109 34.5303 4.94735 31.832 4.94735 28.2083C4.94889 24.5435 7.40251 21.8452 10.9595 21.8452ZM139.983 26.1945L136.384 25.6716C134.666 25.4307 133.44 24.8667 133.44 23.5373C133.44 22.0876 135.035 21.3634 137.202 21.3634C139.574 21.3634 141.087 22.3696 141.415 24.0206H146.158C145.626 19.8329 142.354 17.377 137.325 17.377C132.131 17.377 128.696 19.9945 128.696 23.6989C128.696 27.2418 130.946 29.2968 135.484 29.9401L139.083 30.463C140.842 30.7038 141.824 31.3899 141.824 32.678C141.824 34.329 140.106 35.0135 137.734 35.0135C134.83 35.0135 133.194 33.8458 132.949 32.0743H128.123C128.574 36.1416 131.804 39 137.693 39C143.05 39 146.607 36.5837 146.607 32.4356C146.607 28.7312 144.032 26.7982 139.983 26.1945ZM52.2635 9.20123C50.4642 9.20123 49.114 10.4894 49.114 12.2608C49.114 14.0323 50.4627 15.3204 52.2635 15.3204C54.0629 15.3204 55.4131 14.0323 55.4131 12.2608C55.4131 10.4894 54.0629 9.20123 52.2635 9.20123ZM124.279 24.9063C124.279 20.3969 121.499 17.377 115.61 17.377C110.048 17.377 106.941 20.1561 106.326 24.4246H111.193C111.439 22.7736 112.747 21.4046 115.528 21.4046C118.023 21.4046 119.25 22.4915 119.25 23.8209C119.25 25.5527 117 25.9948 114.22 26.2768C110.457 26.6793 105.796 27.9674 105.796 32.8C105.796 36.5456 108.618 38.9604 113.116 38.9604C116.633 38.9604 118.841 37.5106 119.946 35.2147C120.11 37.2682 121.664 38.5975 123.832 38.5975H126.694V34.2894H124.281V24.9063H124.279ZM119.454 30.1413C119.454 32.9204 117 34.9739 114.014 34.9739C112.173 34.9739 110.619 34.2086 110.619 32.5988C110.619 30.5453 113.115 29.9813 115.405 29.7404C117.613 29.5392 118.84 29.0559 119.454 28.129V30.1413ZM93.404 17.3754C90.6634 17.3754 88.3733 18.5035 86.7376 20.3954V9H81.8304V38.5975H86.6558V35.8596C88.2915 37.8323 90.6233 39 93.404 39C99.2927 39 103.751 34.4098 103.751 28.2083C103.751 22.0068 99.2109 17.3754 93.404 17.3754ZM92.6679 34.5303C89.1511 34.5303 86.574 31.832 86.574 28.2083C86.574 24.5846 89.1912 21.8467 92.7081 21.8467C96.2666 21.8467 98.7603 24.545 98.7603 28.2083C98.7603 31.832 96.1848 34.5303 92.6679 34.5303ZM70.0931 17.3754C66.9034 17.3754 64.8171 18.6636 63.5903 20.4762V17.7779H58.7232V38.596H63.6304V27.2814C63.6304 24.0999 65.6751 21.8452 68.7012 21.8452C71.5236 21.8452 73.2813 23.8178 73.2813 26.6777V38.5975H78.1885V26.3164C78.1901 21.0799 75.451 17.3754 70.0931 17.3754ZM170 27.5238C170 21.5647 165.583 17.377 159.653 17.377C153.356 17.377 148.734 22.0479 148.734 28.2083C148.734 34.6919 153.683 39 159.735 39C164.847 39 168.855 36.0197 169.877 31.7923H164.764C164.028 33.6445 162.229 34.6919 159.815 34.6919C156.666 34.6919 154.294 32.7588 153.763 29.376H169.998V27.5238H170ZM154.05 25.9124C154.828 23.0129 157.036 21.6043 159.571 21.6043C162.352 21.6043 164.479 23.1745 164.969 25.9124H154.05Z" fill="#0052FF"/>
</svg>
