<svg width="37" height="37" viewBox="0 0 37 37" fill="none" xmlns="http://www.w3.org/2000/svg">
<path d="M31.45 11.1C30.142 11.0967 28.8751 11.5567 27.8738 12.3983C26.8726 13.2399 26.2017 14.4089 25.98 15.698C25.7584 16.9871 26.0003 18.313 26.6629 19.4407C27.3255 20.5685 28.366 21.4252 29.6 21.859V24.975C29.6 27.1829 28.7229 29.3004 27.1617 30.8617C25.6004 32.4229 23.4829 33.3 21.275 33.3C19.0671 33.3 16.9496 32.4229 15.3883 30.8617C13.8271 29.3004 12.95 27.1829 12.95 24.975V23.8829C15.5337 23.4445 17.8793 22.1067 19.572 20.106C21.2647 18.1054 22.1956 15.5707 22.2 12.95V1.85C22.2 1.35935 22.0051 0.888795 21.6581 0.541852C21.3112 0.19491 20.8407 0 20.35 0H16.65C16.1593 0 15.6888 0.19491 15.3419 0.541852C14.9949 0.888795 14.8 1.35935 14.8 1.85C14.8 2.34065 14.9949 2.81121 15.3419 3.15815C15.6888 3.50509 16.1593 3.7 16.65 3.7H18.5V12.95C18.5 14.9126 17.7204 16.7948 16.3326 18.1826C14.9448 19.5704 13.0626 20.35 11.1 20.35C9.1374 20.35 7.25518 19.5704 5.86741 18.1826C4.47964 16.7948 3.7 14.9126 3.7 12.95V3.7H5.55C6.04065 3.7 6.51121 3.50509 6.85815 3.15815C7.20509 2.81121 7.4 2.34065 7.4 1.85C7.4 1.35935 7.20509 0.888795 6.85815 0.541852C6.51121 0.19491 6.04065 0 5.55 0H1.85C1.35935 0 0.888795 0.19491 0.541852 0.541852C0.19491 0.888795 0 1.35935 0 1.85V12.95C0.00445022 15.5707 0.935305 18.1054 2.62801 20.106C4.32072 22.1067 6.66626 23.4445 9.25 23.8829V24.975C9.25 28.1642 10.5169 31.2228 12.772 33.478C15.0272 35.7331 18.0858 37 21.275 37C24.4642 37 27.5228 35.7331 29.778 33.478C32.0331 31.2228 33.3 28.1642 33.3 24.975V21.8591C34.534 21.4253 35.5745 20.5686 36.2371 19.4408C36.8997 18.3131 37.1416 16.9871 36.9199 15.6981C36.6983 14.409 36.0274 13.24 35.0261 12.3984C34.0249 11.5567 32.758 11.0968 31.45 11.1ZM31.45 18.5C31.0841 18.5 30.7264 18.3915 30.4222 18.1882C30.118 17.9849 29.8808 17.696 29.7408 17.358C29.6008 17.0199 29.5642 16.6479 29.6355 16.2891C29.7069 15.9302 29.8831 15.6006 30.1419 15.3419C30.4006 15.0831 30.7302 14.9069 31.0891 14.8355C31.4479 14.7642 31.8199 14.8008 32.158 14.9408C32.496 15.0808 32.7849 15.318 32.9882 15.6222C33.1915 15.9264 33.3 16.2841 33.3 16.65C33.2994 17.1405 33.1042 17.6106 32.7574 17.9574C32.4106 18.3042 31.9405 18.4994 31.45 18.5Z" fill="#657EF0"/>
</svg>
