<svg width="31" height="37" viewBox="0 0 31 37" fill="none" xmlns="http://www.w3.org/2000/svg">
<path d="M15.0226 8.08914C17.2563 8.08914 19.0672 6.27832 19.0672 4.04457C19.0672 1.81081 17.2563 0 15.0226 0C12.7888 0 10.978 1.81081 10.978 4.04457C10.978 6.27832 12.7888 8.08914 15.0226 8.08914Z" fill="#657EF0"/>
<path d="M28.0953 9.24472H1.95006C1.43287 9.24472 0.936866 9.45017 0.571159 9.81588C0.205452 10.1816 0 10.6776 0 11.1948C0 11.712 0.205452 12.208 0.571159 12.5737C0.936866 12.9394 1.43287 13.1448 1.95006 13.1448H9.30828C9.80735 13.1448 10.3917 13.368 10.7224 14.2282C11.1088 15.2271 10.9196 17.1562 10.6813 18.6505L10.3693 20.4164C10.3698 20.421 10.3694 20.4257 10.3679 20.43C10.3664 20.4344 10.3639 20.4384 10.3606 20.4417L7.86163 34.6562C7.771 35.1721 7.88844 35.703 8.18825 36.1326C8.48806 36.5622 8.94583 36.8556 9.4614 36.9486C9.7163 36.9936 9.97761 36.9876 10.2302 36.9309C10.4827 36.8742 10.7215 36.7678 10.9326 36.6181C11.1437 36.4683 11.323 36.2781 11.46 36.0584C11.597 35.8388 11.689 35.5942 11.7307 35.3387L13.4576 25.4584C13.4576 25.4584 14.0115 23.1118 15.0227 23.1118C16.0504 23.1118 16.5928 25.4584 16.5928 25.4584L18.3197 35.3473C18.3615 35.6051 18.4541 35.8519 18.5923 36.0735C18.7304 36.295 18.9113 36.4869 19.1243 36.6378C19.3373 36.7888 19.5783 36.8958 19.8331 36.9527C20.0879 37.0096 20.3515 37.0152 20.6085 36.9692C20.8655 36.9232 21.1108 36.8265 21.33 36.6847C21.5493 36.5429 21.7381 36.3589 21.8855 36.1435C22.033 35.928 22.136 35.6853 22.1887 35.4296C22.2414 35.1739 22.2426 34.9102 22.1924 34.654L19.6927 20.4395C19.6932 20.435 19.6928 20.4304 19.6914 20.426C19.6901 20.4217 19.6878 20.4176 19.6848 20.4142L19.372 18.6483C19.1337 17.154 18.9445 15.2249 19.3309 14.226C19.6602 13.368 20.2633 13.1427 20.7234 13.1427H28.0953C28.6125 13.1427 29.1085 12.9372 29.4742 12.5715C29.8399 12.2058 30.0454 11.7098 30.0454 11.1926C30.0454 10.6754 29.8399 10.1794 29.4742 9.81371C29.1085 9.44801 28.6125 9.24255 28.0953 9.24255V9.24472Z" fill="#657EF0"/>
</svg>
