<svg width="38" height="38" viewBox="0 0 38 38" fill="none" xmlns="http://www.w3.org/2000/svg">
<path fill-rule="evenodd" clip-rule="evenodd" d="M7.10616 8.63636H12.0909V12.0909H1.72727V1.71209H5.18182V5.62478C9.04586 1.57278 13.4496 0 19 0C29.4934 0 38 8.50659 38 19C38 29.4934 29.4934 38 19 38C8.50659 38 0 29.4934 0 19H3.45455C3.45455 27.5855 10.4145 34.5455 19 34.5455C27.5855 34.5455 34.5455 27.5855 34.5455 19C34.5455 10.4145 27.5855 3.45455 19 3.45455C14.0932 3.45455 10.4408 4.82147 7.10616 8.63636ZM20.7273 17.2727H27.6364V20.7273H17.2727V8.63636H20.7273V17.2727Z" fill="white"/>
</svg>
