<svg width="35" height="39" viewBox="0 0 35 39" fill="none" xmlns="http://www.w3.org/2000/svg">
<path d="M6.69397 14.6882L7.41179 15.4996L6.69397 14.6882ZM30.2742 13.74L29.5565 14.5514L30.2742 13.74ZM11.4415 8.14862L12.0539 9.04226C12.3021 8.87207 12.4684 8.60643 12.5129 8.30884C12.5574 8.01125 12.476 7.70846 12.2884 7.47327L11.4415 8.14862ZM8.83171 4.87576L8.2478 3.96324C7.98931 4.12864 7.81316 4.39595 7.763 4.69863C7.71274 5.00143 7.79334 5.31126 7.98465 5.55122L8.83171 4.87576ZM12.4854 2.53801L13.3323 1.86262C12.9864 1.42884 12.3688 1.32648 11.9014 1.62549L12.4854 2.53801ZM15.095 5.81089L14.2481 6.48624C14.5605 6.87819 15.101 7.00451 15.5548 6.79185L15.095 5.81089ZM18.0877 4.40819L18.5475 5.38915C18.9279 5.21083 19.171 4.82842 19.171 4.40819H18.0877ZM18.0877 1.08338L18.0876 4.33922e-05C17.4894 5.42255e-05 17.0044 0.485073 17.0044 1.08338H18.0877ZM22.7504 1.08333H23.8337C23.8337 0.796012 23.7195 0.520466 23.5164 0.317298C23.3132 0.114129 23.0377 0 22.7504 0V1.08333ZM22.7504 4.40819H21.667C21.667 4.80415 21.8831 5.16847 22.2304 5.3586L22.7504 4.40819ZM5.58171 15.1985L4.64755 15.747C4.79835 16.004 5.04839 16.1874 5.33872 16.2542C5.62905 16.3211 5.93401 16.2654 6.18209 16.1003L5.58171 15.1985ZM1.24838 12.3095L0.183971 12.1079C0.129501 12.3955 0.193699 12.6929 0.361963 12.9323C0.530237 13.1718 0.788243 13.333 1.07725 13.3793L1.24838 12.3095ZM2.21853 7.18803L2.52433 6.14878C2.23086 6.06244 1.91453 6.10415 1.65349 6.26373C1.39246 6.4233 1.21107 6.68579 1.15413 6.98642L2.21853 7.18803ZM9.91504 13.035L10.3169 14.041C10.7765 13.8575 11.0532 13.3858 10.9893 12.895L9.91504 13.035ZM25.7147 12.1737L26.1698 13.1569L25.7147 12.1737ZM16.5837 14.5217L15.6124 14.0418L15.0408 15.199L16.2795 15.5613L16.5837 14.5217ZM23.1887 7.78353L22.7336 6.80041L23.1887 7.78353ZM33.391 6.27868L34.4736 6.31854L34.5135 5.23348L33.4284 5.19599L33.391 6.27868ZM33.2015 11.4263L33.1641 12.509L34.2443 12.5463L34.2841 11.4662L33.2015 11.4263ZM22.0512 15.5284L21.1343 14.9515L22.0512 15.5284ZM20.5996 16.0093L20.1754 17.0061L20.5996 16.0093ZM5.97615 13.8767C3.80429 15.7979 2.99049 18.4223 3.08246 21.1539C3.17357 23.864 4.15084 26.7306 5.61692 29.3243C7.08603 31.9233 9.08359 34.3157 11.2965 36.0696C13.4942 37.8114 16.0042 39 18.4841 39V36.8333C16.6766 36.8333 14.6314 35.948 12.6423 34.3716C10.6684 32.807 8.84753 30.6366 7.50311 28.2581C6.15566 25.8742 5.3242 23.3484 5.24783 21.081C5.17232 18.8351 5.83229 16.8968 7.41179 15.4996L5.97615 13.8767ZM18.4841 39C20.9577 39 23.5321 37.8175 25.8118 36.067C28.1088 34.3032 30.2122 31.8839 31.754 29.2211C34.7836 23.9888 35.8895 17.2605 30.9921 12.9286L29.5565 14.5514C33.2506 17.819 32.7487 23.1792 29.8789 28.1354C28.4711 30.5668 26.5521 32.7667 24.4922 34.3486C22.4149 35.9437 20.2979 36.8333 18.4841 36.8333V39ZM30.9921 12.9286C30.3702 12.3786 29.8856 12.0927 29.3562 11.8251C28.8455 11.567 28.3727 11.3609 27.609 10.9107L26.5085 12.7769C27.3527 13.2748 27.9517 13.5429 28.3787 13.7588C28.7871 13.9651 29.1064 14.1533 29.5565 14.5514L30.9921 12.9286ZM17.2938 13.5953C15.6799 13.0669 13.5867 12.551 11.5707 12.4355C9.60543 12.3228 7.44808 12.5747 5.97615 13.8767L7.41179 15.4996C8.21898 14.7856 9.63121 14.4945 11.4467 14.5986C13.2113 14.6997 15.1101 15.1602 16.6196 15.6544L17.2938 13.5953ZM12.2884 7.47327L9.67877 4.20037L7.98465 5.55122L10.5944 8.82408L12.2884 7.47327ZM9.41563 5.78825L13.0692 3.45054L11.9014 1.62549L8.2478 3.96324L9.41563 5.78825ZM11.6383 3.21342L14.2481 6.48624L15.9421 5.13543L13.3323 1.86262L11.6383 3.21342ZM15.5548 6.79185L18.5475 5.38915L17.6279 3.42729L14.6352 4.82993L15.5548 6.79185ZM19.171 4.40819V1.08338H17.0044V4.40819H19.171ZM18.0877 2.16671L22.7504 2.16667V0L18.0876 4.33922e-05L18.0877 2.16671ZM21.667 1.08333V4.40819H23.8337V1.08333H21.667ZM22.7504 4.40819C22.2304 5.3586 22.2302 5.35849 22.2299 5.35828C22.2298 5.35828 22.2296 5.35817 22.2295 5.35806C22.2293 5.35795 22.229 5.35784 22.2288 5.35773C22.2283 5.35741 22.2279 5.35719 22.2277 5.35708C22.227 5.35665 22.2267 5.35654 22.2267 5.35654C22.2266 5.35643 22.2278 5.35708 22.2299 5.35838C22.2345 5.36098 22.2436 5.36618 22.2567 5.37398C22.2831 5.38958 22.326 5.41548 22.3826 5.45177C22.4959 5.52457 22.6626 5.63788 22.8599 5.79118C23.2575 6.10003 23.7639 6.55904 24.2127 7.16203L25.9508 5.86842C25.3556 5.0687 24.6964 4.47417 24.1892 4.08018C23.9342 3.8821 23.7138 3.73164 23.553 3.62848C23.4726 3.57683 23.4068 3.53682 23.3587 3.50842C23.3346 3.49422 23.315 3.4829 23.3002 3.47447C23.2927 3.47024 23.2865 3.46674 23.2815 3.46397C23.279 3.46257 23.2769 3.46136 23.2749 3.46033C23.2741 3.45982 23.2732 3.45934 23.2724 3.45892C23.272 3.4587 23.2717 3.45851 23.2714 3.45831C23.2711 3.45822 23.2709 3.45809 23.2708 3.45803C23.2706 3.4579 23.2703 3.45777 22.7504 4.40819ZM10.4164 11.547C10.6575 10.6881 11.0827 10.049 11.4482 9.62455C11.6306 9.41287 11.7953 9.25795 11.9088 9.15991C11.9655 9.11094 12.0088 9.07671 12.0346 9.05699C12.0475 9.04713 12.0559 9.04096 12.0593 9.03847C12.061 9.03728 12.0615 9.03695 12.0606 9.0376C12.0602 9.03792 12.0594 9.03847 12.0582 9.03922C12.0577 9.03955 12.057 9.04009 12.0564 9.04053C12.0559 9.04074 12.0556 9.04107 12.0552 9.04139C12.055 9.0415 12.0546 9.04172 12.0545 9.04172C12.0542 9.04204 12.0539 9.04226 11.4415 8.14862C10.8289 7.25498 10.8286 7.2553 10.8283 7.25552C10.8282 7.25563 10.8279 7.25584 10.8275 7.25595C10.8271 7.25638 10.8266 7.25671 10.826 7.25703C10.8249 7.25779 10.8237 7.25866 10.8224 7.25953C10.82 7.26126 10.817 7.26332 10.8138 7.26559C10.8073 7.27025 10.7993 7.27588 10.7899 7.2826C10.7714 7.29603 10.7475 7.31369 10.7187 7.33568C10.6611 7.37967 10.5841 7.44109 10.4928 7.51996C10.3102 7.67758 10.0679 7.90714 9.8066 8.21058C9.28476 8.81638 8.67593 9.73028 8.33034 10.9617L10.4164 11.547ZM5.58171 15.1985C6.51587 14.65 6.51565 14.6497 6.51544 14.6493C6.51544 14.6492 6.51511 14.6487 6.515 14.6485C6.51468 14.6479 6.51424 14.6473 6.51392 14.6467C6.51316 14.6454 6.51229 14.644 6.51132 14.6423C6.50948 14.6392 6.5072 14.6354 6.5046 14.6311C6.4994 14.6224 6.49269 14.6115 6.48445 14.5982C6.46809 14.572 6.44578 14.5369 6.4175 14.4944C6.36095 14.4092 6.28035 14.2933 6.17527 14.1556C5.96575 13.8809 5.65538 13.5147 5.24122 13.1325C4.41539 12.3704 3.14443 11.5157 1.4195 11.2398L1.07725 13.3793C2.26276 13.5689 3.1584 14.1587 3.77168 14.7248C4.07718 15.0066 4.30435 15.2753 4.45255 15.4697C4.52644 15.5664 4.57963 15.6434 4.61234 15.6926C4.62859 15.7172 4.63975 15.7348 4.6456 15.7442C4.64853 15.7489 4.65015 15.7516 4.65048 15.7521C4.65069 15.7523 4.65048 15.7521 4.64994 15.7512C4.64972 15.7508 4.64939 15.7503 4.64896 15.7496C4.64874 15.7493 4.64853 15.7489 4.64831 15.7484C4.6482 15.7482 4.64799 15.7479 4.64788 15.7478C4.64766 15.7474 4.64755 15.747 5.58171 15.1985ZM2.31279 12.5111L3.28299 7.38963L1.15413 6.98642L0.183971 12.1079L2.31279 12.5111ZM2.21853 7.18803C1.91269 8.22727 1.91248 8.22727 1.91231 8.22716C1.91229 8.22716 1.91214 8.22716 1.91209 8.22716H1.91214C1.91239 8.22727 1.91306 8.22738 1.91415 8.22781C1.91635 8.22846 1.92024 8.22954 1.92577 8.23127C1.93682 8.23463 1.9544 8.23994 1.9781 8.24731C2.02553 8.26204 2.09735 8.28479 2.19023 8.31545C2.37613 8.37666 2.64544 8.46918 2.97153 8.59181C3.62629 8.83805 4.49654 9.20097 5.37414 9.67016C6.25836 10.1428 7.10899 10.7017 7.75314 11.3272C8.40195 11.9573 8.76292 12.5773 8.84081 13.1749L10.9893 12.895C10.8246 11.6302 10.1022 10.5882 9.26255 9.77286C8.41809 8.95278 7.37484 8.28284 6.39562 7.75938C5.40968 7.23233 4.44681 6.83193 3.7343 6.56392C3.37669 6.42937 3.07889 6.32699 2.8685 6.25766C2.7632 6.22288 2.67957 6.19645 2.62118 6.17825C2.59193 6.16915 2.56896 6.16222 2.55271 6.15723C2.54459 6.15485 2.53809 6.1529 2.53332 6.15149C2.53094 6.15073 2.5291 6.15019 2.52758 6.14976C2.52682 6.14954 2.52617 6.14932 2.52563 6.14911C2.52541 6.14911 2.52509 6.149 2.52487 6.149C2.52465 6.14889 2.52433 6.14878 2.21853 7.18803ZM9.51324 12.0289C8.11335 12.588 6.99113 13.1481 6.21459 13.571C5.82611 13.7827 5.52343 13.9603 5.31521 14.0869C5.2111 14.1502 5.1305 14.2008 5.07449 14.2364C5.04654 14.2543 5.02466 14.2684 5.00917 14.2786C5.00137 14.2836 4.99509 14.2877 4.99054 14.2907C4.98815 14.2923 4.98631 14.2935 4.98479 14.2946C4.98393 14.295 4.98328 14.2955 4.98274 14.2959C4.98252 14.296 4.98219 14.2962 4.98198 14.2963C4.98187 14.2964 4.98176 14.2965 4.98165 14.2965C4.98154 14.2966 4.98133 14.2968 5.58171 15.1985C6.18209 16.1003 6.18188 16.1004 6.18177 16.1005C6.18177 16.1005 6.18166 16.1006 6.18155 16.1006C6.18144 16.1007 6.18134 16.1008 6.18123 16.1008C6.18112 16.1009 6.18101 16.101 6.18101 16.101C6.18112 16.1009 6.18155 16.1006 6.18242 16.1001C6.18404 16.099 6.18729 16.0968 6.19206 16.0938C6.2017 16.0875 6.21741 16.0773 6.23908 16.0635C6.28263 16.0358 6.35012 15.9934 6.44058 15.9383C6.62171 15.8283 6.8946 15.6678 7.25091 15.4738C7.96396 15.0854 9.0084 14.5637 10.3169 14.041L9.51324 12.0289ZM22.9682 16.1053C23.9583 14.5315 25.0058 13.6957 26.1698 13.1569L25.2597 11.1906C23.6987 11.9132 22.3372 13.0394 21.1343 14.9515L22.9682 16.1053ZM16.2795 15.5613C17.6236 15.9546 19.1911 16.5871 20.1754 17.0061L21.0239 15.0125C20.023 14.5864 18.3594 13.9124 16.8879 13.4819L16.2795 15.5613ZM22.7336 6.80041C19.5634 8.26778 17.4119 10.3986 15.6124 14.0418L17.555 15.0014C19.1604 11.7514 20.9711 10.0037 23.6438 8.76666L22.7336 6.80041ZM33.4284 5.19599C29.3629 5.0557 25.7891 5.38612 22.7336 6.80041L23.6438 8.76666C26.2403 7.56481 29.4092 7.22529 33.3536 7.36136L33.4284 5.19599ZM34.2841 11.4662L34.4736 6.31854L32.3084 6.23881L32.1189 11.3865L34.2841 11.4662ZM26.1698 13.1569C27.5754 12.5063 29.4345 12.3803 33.1641 12.509L33.2389 10.3437C29.5775 10.2174 27.2031 10.2911 25.2597 11.1906L26.1698 13.1569ZM21.1343 14.9515C21.1158 14.9809 21.0883 15.0009 21.0617 15.0099C21.0373 15.0181 21.0267 15.0137 21.0239 15.0125L20.1754 17.0061C21.2313 17.4555 22.4002 17.0079 22.9682 16.1053L21.1343 14.9515Z" fill="#657EF0"/>
<path d="M21.8317 15.7083L19.3092 21.1657M20.126 31.793L19.8227 27.3479M19.8227 27.3479L19.3758 26.315C18.785 24.9496 18.6804 23.4227 19.0797 21.9896L19.3092 21.1657M19.8227 27.3479L24.4334 26.8127M19.3092 21.1657L14.5941 23.2982M14.5941 23.2982L9.896 22.1912M14.5941 23.2982L12.9919 27.3479" stroke="#657EF0" stroke-width="6.04044"/>
</svg>
