<svg width="272" height="51" viewBox="0 0 272 51" fill="none" xmlns="http://www.w3.org/2000/svg">
<g clip-path="url(#clip0_31_106)">
<path d="M235.976 13.3476C237.617 13.3476 239.152 13.8858 240.502 14.9C241.912 15.9557 242.68 17.6115 242.847 19.5987C242.862 19.6608 242.831 19.7112 242.779 19.7326L242.722 19.7436H239.526C239.479 19.7436 239.432 19.7202 239.412 19.6824L239.401 19.6401C239.027 16.7628 235.521 15.9764 233.404 17.3839C231.93 18.3775 231.639 20.6543 233.051 21.8134C233.604 22.2687 234.241 22.6321 234.886 22.9833L236.595 23.9129L238.096 24.6828C238.846 25.0683 239.588 25.4667 240.294 25.9324C242.722 27.5469 243.53 29.9893 243.094 32.7009C242.597 35.4745 240.149 38.1447 235.417 38.1447C233.61 38.1447 231.868 37.6479 230.27 36.4475C228.569 35.1847 227.946 33.798 227.946 31.2935C227.946 31.2469 227.981 31.2003 228.025 31.1799L228.071 31.1692H231.535C231.598 31.1692 231.66 31.2313 231.66 31.2935C231.66 31.5211 231.702 32.0387 231.785 32.3077C232.262 33.798 233.631 34.7501 235.396 34.8536C237.014 34.9571 238.633 34.067 239.256 32.7837C239.941 31.3762 239.443 29.5961 237.866 28.6232L237.663 28.5006L236.915 28.0723L236.012 27.5786L231.652 25.2799L231.388 25.1326L231.307 25.0839C226.762 22.2688 227.531 13.3476 235.976 13.3476ZM256.688 13.8238C256.735 13.8238 256.782 13.8587 256.802 13.9024L256.813 13.948V23.2624C256.813 23.3452 256.892 23.4015 256.967 23.3784L257.02 23.3453L266.172 13.8652C266.186 13.8514 266.2 13.8376 266.22 13.8299L266.255 13.8238H270.675C270.758 13.8238 270.815 13.9033 270.791 13.9775L270.758 14.0308L259.966 25.2082C259.938 25.2357 259.929 25.2817 259.938 25.3215L259.966 25.3736L271.961 37.7308C272.027 37.7806 272.001 37.8832 271.945 37.9329L271.899 37.9586H267.479L267.437 37.9457L267.395 37.9171L257.02 27.2365C256.971 27.1703 256.868 27.1969 256.828 27.2631L256.813 27.3194V37.8344C256.813 37.881 256.778 37.9276 256.734 37.948L256.688 37.9586H253.222C253.175 37.9586 253.128 37.9237 253.108 37.88L253.097 37.8344V13.948C253.097 13.9014 253.132 13.8548 253.176 13.8345L253.222 13.8238H256.688ZM80.4192 13.8031C80.4608 13.8031 80.4931 13.8123 80.5162 13.8369L80.5438 13.8859L83.3869 23.2418C83.4201 23.3412 83.533 23.3611 83.5981 23.3014L83.6359 23.2418L86.4788 13.8859C86.4927 13.8583 86.5158 13.8307 86.5481 13.8154L86.6034 13.8031H91.8538C91.9004 13.8031 91.9471 13.8381 91.9675 13.8817L91.9782 13.9273V37.8137C91.9782 37.8602 91.9432 37.9068 91.8994 37.9272L91.8538 37.9379H88.3881C88.3414 37.9379 88.2948 37.9029 88.2743 37.8593L88.2636 37.8137V19.6609C88.2636 19.5401 88.1195 19.4913 88.0474 19.5622L88.0146 19.6195L85.1508 29.0375L84.9433 29.6997C84.9294 29.7273 84.9063 29.755 84.8741 29.7703L84.8188 29.7826H82.1625C82.121 29.7826 82.0887 29.7734 82.0656 29.7488L82.0379 29.6997L81.8304 29.0375L78.9667 19.6195C78.9321 19.516 78.7822 19.5131 78.7333 19.5989L78.7177 19.6609V37.8137C78.7177 37.8602 78.6826 37.9068 78.6388 37.9272L78.5931 37.9379H75.1275C75.0808 37.9379 75.0341 37.9029 75.0136 37.8593L75.0029 37.8137V13.9273C75.0029 13.8808 75.038 13.8342 75.0818 13.8138L75.1275 13.8031H80.4192ZM181.046 13.8031C181.088 13.8031 181.12 13.8123 181.143 13.8369L181.171 13.8859L184.014 23.2418C184.047 23.3412 184.16 23.3611 184.226 23.3014L184.263 23.2418L187.105 13.8859C187.119 13.8583 187.142 13.8307 187.174 13.8154L187.23 13.8031H192.501C192.548 13.8031 192.595 13.8381 192.615 13.8817L192.626 13.9273V37.8137C192.626 37.8602 192.591 37.9068 192.547 37.9272L192.501 37.9379H189.036C188.99 37.9379 188.943 37.9029 188.923 37.8593L188.912 37.8137V19.6609C188.912 19.5401 188.768 19.4913 188.696 19.5622L188.663 19.6195L185.799 29.0375L185.591 29.6997C185.577 29.7273 185.554 29.755 185.522 29.7703L185.466 29.7826H182.81C182.768 29.7826 182.736 29.7734 182.713 29.7488L182.685 29.6997L182.478 29.0375L179.615 19.6195C179.58 19.516 179.43 19.5131 179.381 19.5989L179.366 19.6609V37.8137C179.366 37.8602 179.331 37.9068 179.287 37.9272L179.241 37.9379H175.775C175.728 37.9379 175.681 37.9029 175.661 37.8593L175.65 37.8137V13.9273C175.65 13.8808 175.685 13.8342 175.729 13.8138L175.775 13.8031H181.046ZM142.53 13.8031C142.592 13.8031 142.631 13.8381 142.647 13.8817L142.655 13.9273V16.9079C142.655 16.9545 142.62 17.0011 142.576 17.0215L142.53 17.0322H136.201V37.8137C136.201 37.8602 136.166 37.9068 136.122 37.9272L136.076 37.9379H132.611C132.564 37.9379 132.517 37.9029 132.497 37.8593L132.486 37.8137V17.0322H126.157C126.11 17.0322 126.063 16.9972 126.043 16.9535L126.032 16.9079V13.9273C126.032 13.8808 126.067 13.8342 126.111 13.8138L126.157 13.8031H142.53ZM159.609 13.7201C159.651 13.7201 159.683 13.7293 159.706 13.7538L159.734 13.8029L166.25 37.7721C166.265 37.8341 166.234 37.8962 166.182 37.9233L166.125 37.9375H162.972C162.944 37.9375 162.907 37.9192 162.879 37.8946L162.847 37.8548L160.959 30.8793C160.945 30.8517 160.922 30.8241 160.89 30.8088L160.834 30.7965H153.861C153.819 30.7965 153.787 30.8057 153.764 30.8303L153.737 30.8793L151.848 37.8548C151.834 37.8824 151.811 37.91 151.779 37.9253L151.724 37.9375H148.569C148.507 37.9375 148.456 37.891 148.444 37.8328L148.445 37.7721L154.961 13.8029C154.975 13.7753 154.998 13.7477 155.03 13.7323L155.085 13.7201H159.609ZM213.398 13.7201C213.44 13.7201 213.472 13.7293 213.495 13.7538L213.523 13.8029L220.039 37.7721C220.054 37.8341 220.023 37.8962 219.972 37.9233L219.914 37.9375H216.761C216.719 37.9375 216.687 37.9192 216.664 37.8946L216.636 37.8548L214.748 30.8793C214.734 30.8517 214.711 30.8241 214.679 30.8088L214.624 30.7965H207.651C207.609 30.7965 207.577 30.8057 207.554 30.8303L207.526 30.8793L205.638 37.8548C205.624 37.8824 205.601 37.91 205.569 37.9253L205.514 37.9375H202.359C202.297 37.9375 202.246 37.891 202.233 37.8328L202.234 37.7721L208.75 13.8029C208.764 13.7753 208.787 13.7477 208.819 13.7323L208.875 13.7201H213.398ZM116.673 13.8238C116.72 13.8238 116.767 13.8587 116.787 13.9024L116.798 13.948V16.9287C116.798 16.9751 116.763 17.0217 116.719 17.0421L116.673 17.0528H106.173C106.126 17.0528 106.079 17.0877 106.059 17.1314L106.048 17.177V23.5108C106.048 23.5574 106.083 23.604 106.127 23.6244L106.173 23.635H115.407C115.454 23.635 115.501 23.67 115.521 23.7136L115.532 23.7592V26.7397C115.532 26.7864 115.497 26.833 115.453 26.8533L115.407 26.864H106.173C106.126 26.864 106.079 26.899 106.059 26.9426L106.048 26.9881V34.3983C106.048 34.4535 106.067 34.4903 106.097 34.5149L106.152 34.5432H117.109C117.156 34.5432 117.202 34.5782 117.223 34.6219L117.234 34.6675V37.8136C117.234 37.8602 117.199 37.9068 117.155 37.9272L117.109 37.9379H102.458C102.411 37.9379 102.365 37.9029 102.344 37.8592L102.334 37.8136V13.948C102.334 13.9014 102.369 13.8548 102.412 13.8345L102.458 13.8238H116.673ZM157.472 18.046C157.439 17.9467 157.326 17.9269 157.261 17.9865L157.223 18.046L154.691 27.3813C154.676 27.4433 154.707 27.5054 154.758 27.5325L154.816 27.5468H159.879C159.941 27.5468 159.992 27.5002 160.005 27.442L160.004 27.3813L157.472 18.046ZM211.261 18.046C211.228 17.9467 211.115 17.9269 211.05 17.9865L211.012 18.046L208.48 27.3813C208.464 27.4433 208.496 27.5054 208.547 27.5325L208.605 27.5468H213.668C213.731 27.5468 213.781 27.5002 213.794 27.442L213.793 27.3813L211.261 18.046Z" fill="#161616"/>
<path d="M52.9977 0L29.7173 17.2259L34.0465 7.0741L52.9977 0Z" fill="#E17726"/>
<path d="M1.31201 0.0202484L20.2125 7.07535L24.3232 17.3602L1.31201 0.0202484Z" fill="#E27625"/>
<path d="M43.6286 36.6345L53.9181 36.8303L50.3221 49.0467L37.7666 45.5897L43.6286 36.6345Z" fill="#E27625"/>
<path d="M10.6263 36.6345L16.4666 45.5897L3.93209 49.0469L0.35791 36.8303L10.6263 36.6345Z" fill="#E27625"/>
<path d="M23.7642 14.7404L24.1848 28.3218L11.6021 27.7494L15.1811 22.3498L15.2264 22.2977L23.7642 14.7404Z" fill="#E27625"/>
<path d="M30.3605 14.5889L39.0286 22.2983L39.0734 22.35L42.6526 27.7495L30.0728 28.3219L30.3605 14.5889Z" fill="#E27625"/>
<path d="M16.8351 36.6739L23.7056 42.0271L15.7246 45.8804L16.8351 36.6739Z" fill="#E27625"/>
<path d="M37.4215 36.6731L38.5089 45.8804L30.5503 42.0268L37.4215 36.6731Z" fill="#E27625"/>
<path d="M30.7256 41.5225L38.8017 45.4331L31.2893 49.0035L31.3673 46.6437L30.7256 41.5225Z" fill="#D5BFB2"/>
<path d="M23.5272 41.5242L22.9106 46.6051L22.9612 49.0007L15.4312 45.4331L23.5272 41.5242Z" fill="#D5BFB2"/>
<path d="M21.195 30.0944L23.3054 34.5297L16.1201 32.4249L21.195 30.0944Z" fill="#233447"/>
<path d="M33.0601 30.0948L38.1588 32.4248L30.9502 34.5291L33.0601 30.0948Z" fill="#233447"/>
<path d="M17.3842 36.6286L16.2227 46.1741L9.99756 36.8373L17.3842 36.6286Z" fill="#CC6228"/>
<path d="M36.8716 36.6287L44.2584 36.8373L38.0099 46.1744L36.8716 36.6287Z" fill="#CC6228"/>
<path d="M42.8346 27.2096L37.4588 32.6884L33.3141 30.7943L31.3297 34.966L30.0288 27.7923L42.8346 27.2096Z" fill="#CC6228"/>
<path d="M11.418 27.2095L24.226 27.7923L22.9251 34.966L20.9403 30.7948L16.8174 32.6885L11.418 27.2095Z" fill="#CC6228"/>
<path d="M11.0557 26.0854L17.1378 32.2571L17.3486 38.35L11.0557 26.0854Z" fill="#E27525"/>
<path d="M43.2055 26.0742L36.9014 38.3607L37.1387 32.2569L43.2055 26.0742Z" fill="#E27525"/>
<path d="M23.9287 26.4612L24.1734 28.0019L24.7783 31.8402L24.3895 43.6291L22.5509 34.159L22.5503 34.0611L23.9287 26.4612Z" fill="#E27525"/>
<path d="M30.3232 26.4399L31.7053 34.0611L31.7047 34.159L29.8615 43.6529L29.7886 41.2782L29.501 31.7704L30.3232 26.4399Z" fill="#E27525"/>
<path d="M37.6792 32.0118L37.4734 37.3055L31.0573 42.3044L29.7603 41.388L31.2141 33.8992L37.6792 32.0118Z" fill="#F5841F"/>
<path d="M16.5981 32.0119L23.0409 33.8994L24.4948 41.388L23.1977 42.3044L16.7813 37.305L16.5981 32.0119Z" fill="#F5841F"/>
<path d="M14.2036 44.264L22.4123 48.1534L22.3775 46.4926L23.0643 45.8897H31.1886L31.9002 46.4906L31.8478 48.1503L40.0044 44.2739L36.0354 47.5537L31.236 50.85H22.9985L18.2023 47.5402L14.2036 44.264Z" fill="#C0AC9D"/>
<path d="M30.1378 41.0049L31.2984 41.8247L31.9785 47.2512L30.9943 46.4201H23.2639L22.2983 47.2679L22.9561 41.8251L24.1172 41.0049H30.1378Z" fill="#161616"/>
<path d="M51.4605 0.476807L54.2551 8.86039L52.5098 17.337L53.7526 18.2957L52.0709 19.5787L53.3347 20.5548L51.6612 22.0789L52.6887 22.823L49.962 26.0074L38.7782 22.7512L38.6813 22.6993L30.6221 15.9007L51.4605 0.476807Z" fill="#763E1A"/>
<path d="M2.79456 0.476807L23.6331 15.9007L15.5739 22.6993L15.4769 22.7512L4.29309 26.0074L1.56645 22.823L2.59307 22.0795L0.920326 20.5548L2.18177 19.5798L0.475016 18.2931L1.76463 17.3338L0 8.8607L2.79456 0.476807Z" fill="#763E1A"/>
<path d="M38.231 22.0391L50.081 25.4891L53.9308 37.3544L43.7741 37.3544L36.7759 37.4427L41.8653 27.5225L38.231 22.0391Z" fill="#F5841F"/>
<path d="M16.0241 22.0391L12.3891 27.5225L17.4792 37.4427L10.4844 37.3544H0.345703L4.17395 25.4892L16.0241 22.0391Z" fill="#F5841F"/>
<path d="M34.6267 7.0175L31.3123 15.9693L30.6089 28.0625L30.3397 31.8528L30.3184 41.5356H23.9368L23.9161 31.871L23.6461 28.0591L22.9424 15.9693L19.6284 7.0175H34.6267Z" fill="#F5841F"/>
</g>
<defs>
<clipPath id="clip0_31_106">
<rect width="272" height="51" fill="white"/>
</clipPath>
</defs>
</svg>
