<svg width="416" height="95" viewBox="0 0 416 95" fill="none" xmlns="http://www.w3.org/2000/svg">
<path d="M47.584 94.408C40.8427 94.408 34.5707 93.256 28.768 90.952C23.0507 88.5627 18.016 85.2347 13.664 80.968C9.39733 76.7013 6.06933 71.752 3.68 66.12C1.29067 60.4027 0.0960002 54.2587 0.0960002 47.688C0.0960002 41.1173 1.29067 35.016 3.68 29.384C6.06933 23.6667 9.39733 18.7173 13.664 14.536C17.9307 10.3547 22.9227 7.11199 28.64 4.808C34.4427 2.41867 40.7147 1.224 47.456 1.224C54.624 1.224 60.9813 2.376 66.528 4.67999C72.16 6.98399 77.0667 10.1413 81.248 14.152L67.808 27.72C65.4187 25.16 62.5173 23.1547 59.104 21.704C55.776 20.2533 51.8933 19.528 47.456 19.528C43.5307 19.528 39.904 20.2107 36.576 21.576C33.3333 22.856 30.5173 24.7333 28.128 27.208C25.824 29.6827 23.9893 32.6693 22.624 36.168C21.344 39.6667 20.704 43.5067 20.704 47.688C20.704 51.9547 21.344 55.8373 22.624 59.336C23.9893 62.8347 25.824 65.8213 28.128 68.296C30.5173 70.7707 33.3333 72.6907 36.576 74.056C39.904 75.4213 43.5307 76.104 47.456 76.104C52.064 76.104 56.0747 75.3787 59.488 73.928C62.9013 72.4773 65.8453 70.472 68.32 67.912L81.888 81.48C77.536 85.4907 72.544 88.648 66.912 90.952C61.3653 93.256 54.9227 94.408 47.584 94.408ZM132.25 93V57.544C132.25 54.3013 131.226 51.6987 129.178 49.736C127.215 47.688 124.698 46.664 121.626 46.664C119.493 46.664 117.615 47.1333 115.994 48.072C114.373 48.9253 113.093 50.2053 112.154 51.912C111.215 53.5333 110.746 55.4107 110.746 57.544L103.194 53.832C103.194 48.968 104.218 44.7013 106.266 41.032C108.314 37.3627 111.173 34.5467 114.842 32.584C118.511 30.536 122.735 29.512 127.514 29.512C132.378 29.512 136.645 30.536 140.314 32.584C143.983 34.5467 146.799 37.32 148.762 40.904C150.81 44.4027 151.834 48.4987 151.834 53.192V93H132.25ZM91.162 93V0.0719986H110.746V93H91.162ZM195.132 94.408C188.391 94.408 182.375 93.0427 177.084 90.312C171.879 87.496 167.783 83.6133 164.796 78.664C161.809 73.7147 160.316 68.1253 160.316 61.896C160.316 55.6667 161.767 50.12 164.668 45.256C167.655 40.3067 171.665 36.424 176.7 33.608C181.735 30.792 187.409 29.384 193.724 29.384C199.868 29.384 205.287 30.7067 209.98 33.352C214.673 35.9973 218.343 39.6667 220.988 44.36C223.719 49.0533 225.084 54.4293 225.084 60.488C225.084 61.5973 224.999 62.792 224.828 64.072C224.743 65.2667 224.529 66.6747 224.188 68.296L170.556 68.424V54.984L215.868 54.856L207.42 60.488C207.335 56.904 206.78 53.96 205.756 51.656C204.732 49.2667 203.196 47.4747 201.148 46.28C199.185 45 196.753 44.36 193.852 44.36C190.78 44.36 188.092 45.0853 185.788 46.536C183.569 47.9013 181.82 49.864 180.54 52.424C179.345 54.984 178.748 58.0987 178.748 61.768C178.748 65.4373 179.388 68.5947 180.668 71.24C182.033 73.8 183.911 75.8053 186.3 77.256C188.775 78.6213 191.676 79.304 195.004 79.304C198.076 79.304 200.849 78.792 203.324 77.768C205.799 76.6587 207.975 75.0373 209.852 72.904L220.604 83.656C217.532 87.24 213.82 89.928 209.468 91.72C205.116 93.512 200.337 94.408 195.132 94.408ZM264.617 94.408C258.217 94.408 252.414 93 247.209 90.184C242.004 87.368 237.908 83.4853 234.921 78.536C231.934 73.5867 230.441 68.04 230.441 61.896C230.441 55.6667 231.934 50.12 234.921 45.256C237.993 40.3067 242.132 36.424 247.337 33.608C252.542 30.792 258.388 29.384 264.873 29.384C269.737 29.384 274.174 30.2373 278.185 31.944C282.281 33.5653 285.908 36.04 289.065 39.368L276.521 51.912C275.07 50.2907 273.364 49.096 271.401 48.328C269.524 47.56 267.348 47.176 264.873 47.176C262.057 47.176 259.54 47.816 257.321 49.096C255.188 50.2907 253.481 51.9973 252.201 54.216C251.006 56.3493 250.409 58.8667 250.409 61.768C250.409 64.6693 251.006 67.2293 252.201 69.448C253.481 71.6667 255.23 73.416 257.449 74.696C259.668 75.976 262.142 76.616 264.873 76.616C267.433 76.616 269.694 76.1893 271.657 75.336C273.705 74.3973 275.454 73.1173 276.905 71.496L289.321 84.04C286.078 87.4533 282.409 90.056 278.313 91.848C274.217 93.5547 269.652 94.408 264.617 94.408ZM337.845 93L316.085 60.744L337.717 30.792H359.605L333.493 64.456L334.133 56.392L360.885 93H337.845ZM298.037 93V0.0719986H317.621V93H298.037ZM365.912 93V30.792H385.496V93H365.912ZM385.496 58.824L377.304 52.424C378.925 45.1707 381.656 39.5387 385.496 35.528C389.336 31.5173 394.669 29.512 401.496 29.512C404.483 29.512 407.085 29.9813 409.304 30.92C411.608 31.7733 413.613 33.1387 415.32 35.016L403.672 49.736C402.819 48.7973 401.752 48.072 400.472 47.56C399.192 47.048 397.741 46.792 396.12 46.792C392.877 46.792 390.275 47.816 388.312 49.864C386.435 51.8267 385.496 54.8133 385.496 58.824Z" fill="#2971FC"/>
</svg>
